<svg width="134" height="83" viewBox="0 0 134 83" fill="none" xmlns="http://www.w3.org/2000/svg">
<g id="a" clip-path="url(#clip0_1057_629)">
<path id="Vector" d="M134 43.3735C133.824 43.2838 133.632 43.3306 133.447 43.3306C119.059 43.3306 104.674 43.3306 90.2855 43.3267C84.733 43.3267 79.7918 41.5994 75.6226 37.9304C71.2809 34.1054 68.8044 29.2861 68.3264 23.5115C67.817 17.3198 69.6469 11.8572 73.8044 7.24062C77.5779 3.0491 82.3467 0.694046 87.9971 0.163769C88.291 0.136475 88.5849 0.11698 88.8827 0.0935854C89.0512 0.0506954 89.2275 0.07409 89.396 0.07409C104.079 0.07409 118.761 0.07409 133.444 0.07409C133.628 0.07409 133.82 0.0273009 133.996 0.11698V12.4498C133.769 12.6409 133.491 12.5941 133.232 12.5941C129.505 12.5941 125.779 12.5941 122.053 12.5941C111.187 12.5941 100.321 12.5824 89.4587 12.6019C85.7048 12.6097 82.9697 14.3721 81.273 17.6629C79.5763 20.942 80.1288 24.9308 82.5857 27.6953C84.4195 29.7579 86.7275 30.8067 89.5057 30.8067C104.035 30.8067 118.565 30.8067 133.091 30.8067C133.397 30.8067 133.722 30.7327 133.996 30.9471V43.3735H134Z" fill="black"/>
<path id="Vector_2" d="M0.0273804 0.128667L0.015625 0.0233917H45.1133C45.1329 0.0428872 45.1368 0.0662817 45.129 0.0935754C45.0114 0.253438 44.8351 0.249539 44.6627 0.265136C44.4903 0.276833 44.3179 0.272934 44.1455 0.272934C29.7568 0.272934 15.3682 0.272934 0.979569 0.272934C0.658255 0.272934 0.317347 0.354815 0.0273804 0.132566V0.128667Z" fill="#F08188"/>
<path id="Vector_3" d="M134 0.116976C119.165 0.116976 104.329 0.116976 89.4901 0.116976C89.2863 0.116976 89.0865 0.10138 88.8827 0.0935817C88.871 0.0662881 88.8788 0.0428935 88.8984 0.023398C103.793 0.023398 118.683 0.023398 133.577 0.0272971C133.714 0.0272971 133.894 -0.0818775 134 0.113077V0.116976Z" fill="#7F7F7F"/>
<path id="Vector_4" d="M0.0274903 0.128666C0.231251 0.128666 0.435011 0.120868 0.638772 0.120868C15.2508 0.120868 29.8627 0.120868 44.4786 0.120868C44.6981 0.120868 44.9136 0.105271 45.133 0.0974731C48.2129 0.249538 51.1636 0.963072 53.8751 2.40964C60.7129 6.05139 64.7411 11.7012 65.6227 19.3863C66.3437 25.6794 64.5138 31.2902 60.2936 36.0315C56.4378 40.3634 51.5358 42.7653 45.709 43.2409C45.2232 43.2799 44.7412 43.2682 44.2592 43.2838C43.7185 43.3774 43.162 43.2565 42.6252 43.3423C42.0374 43.4359 41.5711 43.2175 41.0735 42.9758C36.4223 40.726 31.6731 38.7219 26.7789 37.0531C21.4968 35.2478 16.1207 33.809 10.6466 32.7368C7.54312 32.1285 4.41618 31.6606 1.27356 31.2863C1.09331 31.2629 0.889554 31.2863 0.756326 31.0914C0.913065 30.9393 1.10899 31.0095 1.2814 31.0095C4.83546 31.0056 8.38951 31.0095 11.9436 31.0095C22.8252 31.0095 33.7068 31.0095 44.5923 31.0095C44.7647 31.0095 44.9371 31.0329 45.1095 30.9861C49.9096 30.5728 53.4637 27.0246 53.8555 22.2599C54.1416 18.8053 52.0178 15.07 48.9065 13.4987C47.441 12.7578 45.9128 12.4069 44.267 12.4108C29.7099 12.4225 15.1567 12.4186 0.599587 12.4264C0.152881 12.4264 6.09835e-05 12.3562 0.00397946 11.861C0.0274903 7.93855 0.0235718 4.03166 0.0274903 0.128666Z" fill="#E20613"/>
<path id="Vector_5" d="M45.1055 30.9705C44.9213 31.1031 44.7097 31.0368 44.5138 31.0368C30.2388 31.0368 15.9599 31.0368 1.68491 31.0368H0.889457V31.0797C1.69666 31.1888 2.50779 31.3019 3.31891 31.4033C5.10573 31.6255 6.88472 31.918 8.65979 32.2221C11.7593 32.7524 14.8275 33.4308 17.8682 34.2145C20.1174 34.7916 22.3431 35.4467 24.557 36.1563C27.3196 37.0414 30.0507 38.0201 32.7427 39.0962C35.133 40.0515 37.4958 41.0769 39.8038 42.2155C40.4621 42.5391 41.1322 42.8354 41.7905 43.163C42.151 43.3423 42.5271 43.2487 42.8994 43.2643C43.3539 43.2838 43.8085 43.2721 44.2591 43.2721C43.6282 43.4008 42.9895 43.2643 42.2019 43.3696C50.7167 47.6937 58.5184 52.8561 65.7206 58.9114C65.6187 59.0908 65.4776 59.0128 65.3758 59.0128C58.7222 59.0167 52.0686 59.0128 45.4151 59.0206C45.1173 59.0206 44.8743 58.9387 44.6274 58.7866C37.8132 54.5912 30.6267 51.1834 23.0563 48.5671C17.9505 46.8008 12.7428 45.4283 7.43722 44.4263C5.10965 43.9857 2.7664 43.6153 0.411403 43.3657C0.109681 43.3345 0.0117188 43.2253 0.0117188 42.9056C0.0234742 39.1235 0.0273926 35.3414 0.0117188 31.5593C0.0117188 31.0992 0.109681 30.9705 0.591653 30.9705C10.0939 30.9861 19.5962 30.9822 29.0985 30.9822C34.2317 30.9822 39.3689 30.9822 44.5021 30.9822C44.7058 30.9822 44.9096 30.9705 45.1133 30.9666L45.1055 30.9705Z" fill="#BD1522"/>
<path id="Vector_6" d="M96.8372 76.3988C96.8372 74.4688 96.845 72.5387 96.8293 70.6087C96.8293 70.2695 96.8764 70.1252 97.2761 70.1291C99.9837 70.1486 102.691 70.1447 105.403 70.1291C105.728 70.1291 105.834 70.2071 105.818 70.5385C105.791 71.0805 105.791 71.6303 105.818 72.1722C105.834 72.4686 105.74 72.5309 105.454 72.527C103.624 72.5153 101.79 72.527 99.9602 72.5114C99.6311 72.5114 99.5409 72.6011 99.5566 72.9247C99.584 73.5447 99.584 74.1686 99.5566 74.7924C99.5448 75.0965 99.6506 75.1433 99.9249 75.1433C101.692 75.1316 103.463 75.1433 105.231 75.1277C105.564 75.1277 105.705 75.1823 105.677 75.5527C105.642 76.0791 105.65 76.6133 105.677 77.1397C105.693 77.4555 105.583 77.5296 105.278 77.5257C103.526 77.514 101.771 77.5296 100.019 77.5101C99.6467 77.5062 99.537 77.6076 99.5527 77.9741C99.584 78.6252 99.5762 79.2803 99.5527 79.9353C99.5409 80.2433 99.6428 80.3291 99.9485 80.3252C101.763 80.3135 103.581 80.3252 105.395 80.3096C105.713 80.3096 105.834 80.372 105.814 80.7112C105.783 81.2844 105.795 81.8615 105.814 82.4385C105.822 82.6881 105.74 82.7505 105.497 82.7505C102.727 82.7427 99.9563 82.7388 97.182 82.7544C96.8098 82.7544 96.8333 82.5711 96.8333 82.3216C96.8333 80.3447 96.8333 78.3679 96.8333 76.391L96.8372 76.3988Z" fill="black"/>
<path id="Vector_7" d="M23.8792 74.2076C23.8792 72.9793 23.891 71.7472 23.8714 70.519C23.8675 70.211 23.9498 70.1213 24.2593 70.133C24.949 70.1564 25.6386 70.1486 26.3243 70.133C26.5908 70.1252 26.7044 70.1681 26.7044 70.48C26.6888 72.9091 26.7201 75.3383 26.6888 77.7635C26.6692 79.0892 26.3714 80.3369 25.4113 81.3585C24.8745 81.9278 24.2476 82.345 23.5148 82.5789C21.9004 83.0975 20.2625 83.1521 18.6402 82.6413C16.5086 81.9706 15.2664 80.3213 15.2429 78.1027C15.2155 75.5644 15.2429 73.0261 15.2312 70.4917C15.2312 70.2032 15.3056 70.1213 15.5956 70.1291C16.2695 70.1525 16.9435 70.1564 17.6136 70.1291C17.9662 70.1135 18.0172 70.2539 18.0133 70.558C18.0015 72.9403 18.0015 75.3227 18.0093 77.705C18.0093 78.9644 18.6481 79.9353 19.7139 80.3486C20.8698 80.797 22.3941 80.5202 23.1543 79.7131C23.6559 79.1789 23.8675 78.5199 23.8753 77.8025C23.891 76.6055 23.8792 75.4046 23.8792 74.2076Z" fill="black"/>
<path id="Vector_8" d="M47.6917 76.4612C47.6956 72.7454 50.3014 70.1057 54.067 69.9458C56.4142 69.8445 58.2441 70.7023 59.545 72.6635C59.741 72.9598 59.7135 73.0963 59.3844 73.2367C58.8005 73.4901 58.2284 73.7786 57.6603 74.0633C57.4722 74.1569 57.3703 74.1452 57.241 73.9541C56.4338 72.7493 55.3092 72.1722 53.8515 72.3867C52.3625 72.6089 51.3006 73.4394 50.7755 74.847C49.984 76.9759 50.846 79.4635 52.9777 80.2823C54.5725 80.8945 56.2222 80.4305 57.1783 79.0229C57.3585 78.7578 57.4878 78.7149 57.7621 78.8631C58.3225 79.1633 58.9024 79.4323 59.4823 79.7014C59.7057 79.8066 59.7331 79.8963 59.596 80.1147C58.3068 82.1617 56.4259 83.0741 54.0357 82.961C52.5035 82.8869 51.0968 82.4151 49.9095 81.417C48.3696 80.1225 47.6877 78.4342 47.6877 76.4534L47.6917 76.4612Z" fill="black"/>
<path id="Vector_9" d="M116.571 77.6582C116.571 79.214 116.559 80.7697 116.579 82.3255C116.583 82.6842 116.477 82.7739 116.132 82.7583C115.509 82.731 114.878 82.731 114.255 82.7583C113.894 82.7739 113.789 82.6842 113.789 82.306C113.804 79.1945 113.789 76.083 113.804 72.9715C113.804 72.6206 113.738 72.4997 113.354 72.5114C112.386 72.5426 111.414 72.5114 110.442 72.527C110.211 72.527 110.113 72.4841 110.121 72.2268C110.141 71.638 110.137 71.0454 110.121 70.4527C110.113 70.211 110.184 70.133 110.434 70.1369C113.597 70.1447 116.755 70.1447 119.917 70.1369C120.172 70.1369 120.238 70.2227 120.231 70.4605C120.215 71.022 120.211 71.5796 120.231 72.141C120.242 72.4374 120.168 72.5387 119.847 72.5309C118.879 72.5075 117.907 72.5348 116.935 72.5153C116.63 72.5075 116.547 72.5933 116.551 72.8975C116.567 74.4844 116.559 76.0713 116.559 77.6582H116.571Z" fill="black"/>
<path id="Vector_10" d="M32.1471 76.3949C32.1471 74.4493 32.1589 72.5036 32.1354 70.558C32.1314 70.1954 32.2333 70.1135 32.5781 70.1291C33.1855 70.1564 33.8007 70.1642 34.4081 70.1291C34.8117 70.1057 34.9332 70.2071 34.9292 70.6321C34.9096 74.0711 34.9175 77.5101 34.9175 80.9491C34.9175 81.417 34.894 81.8849 34.9253 82.3489C34.9488 82.692 34.8156 82.7661 34.4982 82.7544C33.8399 82.731 33.1816 82.731 32.5272 82.7544C32.2216 82.7661 32.1354 82.6803 32.1393 82.3684C32.155 80.3759 32.1471 78.3835 32.1471 76.391V76.3949Z" fill="black"/>
<path id="Vector_11" d="M127.715 80.2667C127.832 80.4695 128.024 80.3603 128.177 80.3642C129.913 80.372 131.653 80.3876 133.389 80.3564C133.839 80.3486 133.941 80.4929 133.914 80.9023C133.879 81.3819 133.89 81.8693 133.914 82.3489C133.93 82.6413 133.828 82.7154 133.542 82.7115C130.693 82.6998 127.844 82.6998 124.995 82.6959C124.992 80.8282 124.98 78.9605 124.98 77.0929C124.98 74.9289 124.984 72.7649 124.972 70.6009C124.972 70.2929 125.031 70.172 125.376 70.1759C128.083 70.1915 130.791 70.1915 133.499 70.1759C133.836 70.1759 133.926 70.2695 133.91 70.5931C133.883 71.2286 133.894 71.8681 133.894 72.5075C131.97 72.5075 130.046 72.527 128.126 72.5075C127.774 72.5075 127.676 72.5894 127.695 72.9403C127.727 73.5447 127.723 74.153 127.695 74.7573C127.684 75.0615 127.77 75.1433 128.075 75.1394C129.858 75.1238 131.641 75.1394 133.424 75.1238C133.714 75.1238 133.836 75.1745 133.816 75.4943C133.785 76.0206 133.785 76.5509 133.816 77.0812C133.836 77.4204 133.749 77.5257 133.389 77.5218C131.637 77.5023 129.886 77.5218 128.134 77.5062C127.801 77.5062 127.676 77.5608 127.691 77.9273C127.731 78.7032 127.711 79.483 127.715 80.2589V80.2667Z" fill="black"/>
<path id="Vector_12" d="M91.8726 75.6229C91.5356 72.5192 89.2551 70.4215 86.1242 70.1915C84.2982 70.0589 82.4643 70.1759 80.6383 70.133C80.2818 70.1252 80.1956 70.2227 80.1956 70.5736C80.2151 72.5348 80.2034 74.4961 80.2034 76.4534C80.2034 78.4108 80.2034 80.3759 80.2034 82.3333C80.2034 82.5828 80.1877 82.77 80.5561 82.7622C82.3703 82.7154 84.1846 82.8362 85.9949 82.6998C89.7174 82.419 92.3154 79.7287 91.8726 75.6229ZM89.1101 76.7576C88.9102 79.0307 87.4016 80.3213 85.1132 80.3213C84.549 80.3213 83.9847 80.2979 83.4244 80.3291C83.0443 80.3486 82.9111 80.2589 82.9228 79.8534C82.9542 78.7032 82.9346 77.5491 82.9346 76.3988C82.9346 75.2174 82.9346 74.0321 82.9346 72.8507C82.9346 72.7181 82.8444 72.5153 83.1227 72.5231C84.1846 72.5543 85.2543 72.4218 86.3005 72.6635C88.3381 73.1314 89.2747 74.8548 89.1101 76.7614V76.7576Z" fill="black"/>
<path id="Vector_13" d="M7.68403 78.3016C7.52729 78.0404 7.49203 77.9429 7.83685 77.8415C8.51475 77.6388 9.06725 77.2215 9.47086 76.6523C10.4113 75.3227 10.4975 73.8722 9.85879 72.4179C9.17305 70.8504 7.82902 70.1876 6.18326 70.1525C4.25929 70.1096 2.3314 70.1525 0.40743 70.133C0.0626043 70.133 0.00382726 70.2422 0.00774573 70.5541C0.0234196 72.5153 0.0155827 74.4766 0.0155827 76.4378C0.0155827 78.3991 0.0234196 80.3915 0.00774573 82.3684C0.00774573 82.6608 0.0665228 82.7739 0.387838 82.7622C1.06181 82.7349 1.73579 82.7427 2.40585 82.7622C2.67623 82.77 2.75068 82.6881 2.74284 82.4229C2.72717 81.5534 2.735 80.68 2.73892 79.8066C2.73892 79.3115 2.56651 78.6408 2.81729 78.364C3.10334 78.0521 3.78907 78.3133 4.29455 78.2665C4.59236 78.2392 4.73734 78.3757 4.87057 78.6213C5.56806 79.9002 6.28906 81.1674 6.98263 82.4502C7.11194 82.692 7.26476 82.7661 7.53121 82.7622C8.31491 82.7466 9.09468 82.7622 9.87838 82.7544C9.99593 82.7544 10.1527 82.8206 10.231 82.7076C10.3133 82.5828 10.1723 82.4853 10.1135 82.3839C9.30628 81.0232 8.50691 79.6585 7.68403 78.3094V78.3016ZM5.74047 75.8764C4.81963 75.9232 3.89487 75.8764 2.97403 75.892C2.73892 75.892 2.735 75.7789 2.735 75.6073C2.74284 75.1238 2.735 74.6442 2.735 74.1608C2.735 73.7085 2.735 73.2601 2.735 72.8078C2.735 72.6791 2.68014 72.5153 2.91917 72.5231C3.88703 72.5543 4.85881 72.4491 5.82276 72.5738C6.85723 72.7064 7.45676 73.3497 7.43325 74.227C7.40974 75.1277 6.73576 75.8218 5.74047 75.8764Z" fill="black"/>
<path id="Vector_14" d="M71.2966 70.4488C71.2065 70.211 71.0733 70.1252 70.8108 70.133C69.9173 70.1525 69.0239 70.1525 68.1344 70.133C67.8327 70.1252 67.6838 70.2227 67.5898 70.4995C67.4252 70.983 67.2293 71.4548 67.0451 71.9305C65.6971 75.4085 64.3492 78.8904 62.9934 82.3683C62.8876 82.6413 62.8641 82.7739 63.2442 82.7622C64.0435 82.7349 64.8429 82.7388 65.6384 82.7622C65.9127 82.77 66.0145 82.6647 66.0968 82.4268C66.2771 81.9005 66.5004 81.3858 66.6807 80.8594C66.7512 80.6566 66.8531 80.6021 67.049 80.606C68.6478 80.6099 70.2426 80.6138 71.8413 80.606C72.0607 80.606 72.1665 80.6722 72.241 80.8906C72.4173 81.417 72.6289 81.9355 72.8248 82.4541C72.8797 82.5945 72.8915 82.7583 73.1109 82.7583C74.0748 82.7544 75.0388 82.7583 75.9831 82.7583C76.0106 82.6998 76.0223 82.6803 76.0184 82.6725C74.4432 78.6018 72.8679 74.5273 71.3006 70.4566L71.2966 70.4488ZM67.5349 78.1924C68.1619 76.4729 68.781 74.7612 69.451 72.9208C70.1211 74.7573 70.7402 76.4573 71.3711 78.1924H67.5349Z" fill="black"/>
</g>
<defs>
<clipPath id="clip0_1057_629">
<rect width="134" height="83" fill="white"/>
</clipPath>
</defs>
</svg>
