<svg width="67" height="29" viewBox="0 0 67 29" fill="none" xmlns="http://www.w3.org/2000/svg">
<g id="a" clip-path="url(#clip0_1057_463)">
<path id="Vector" d="M66.1147 12.2052L55.7051 0.930399C55.1182 0.333595 54.3311 0 53.5118 0L41.7929 0C40.0552 0 38.6469 1.47075 38.6469 3.28536V11.002C38.6469 11.505 38.0606 11.7521 37.7265 11.3891C35.1555 8.59794 28.08 0.930399 28.08 0.930399C27.4931 0.333595 26.7061 0 25.8867 0L3.14598 0C1.40835 0 0 1.47075 0 3.28536L0 25.7146C0 27.5293 1.40835 29 3.14598 29H25.8313C26.6829 29 27.4987 28.6393 28.0912 27.9999C28.0912 27.9999 35.1583 20.3735 37.7279 17.5962C38.0621 17.2347 38.6476 17.4818 38.6476 17.9848V25.7154C38.6476 27.53 40.0559 29.0007 41.7936 29.0007H53.4571C54.3087 29.0007 55.1245 28.64 55.717 28.0007L66.1105 16.7912C67.2949 15.514 67.297 13.486 66.1154 12.2059L66.1147 12.2052Z" fill="url(#paint0_linear_1057_463)"/>
</g>
<defs>
<linearGradient id="paint0_linear_1057_463" x1="45.747" y1="-1.59677" x2="32.9057" y2="39.8683" gradientUnits="userSpaceOnUse">
<stop stop-color="#1ACDB8"/>
<stop offset="1" stop-color="#14A797"/>
</linearGradient>
<clipPath id="clip0_1057_463">
<rect width="67" height="29" fill="white"/>
</clipPath>
</defs>
</svg>
