<svg width="72" height="72" viewBox="0 0 72 72" fill="none" xmlns="http://www.w3.org/2000/svg">
<g id="google 1" clip-path="url(#clip0_1057_416)">
<g id="Group">
<g id="Group_2">
<path id="Vector" d="M15.9746 27.1496L3.71152 20.0696C1.34198 24.858 0.000140625 30.2583 0 35.9997C0 41.6617 1.35633 47.0713 3.76228 51.9022L15.9737 44.8519C14.7693 42.1398 14.0868 39.1485 14.087 35.9997C14.0871 32.8511 14.77 29.8607 15.9746 27.1496Z" fill="#F5F5F5"/>
</g>
</g>
<g id="Group_3">
<g id="Group_4">
<path id="Vector_2" d="M59.6144 8.82676C53.2877 3.32354 45.0204 -0.00603865 35.9751 8.22227e-06C23.6 0.0083051 12.5544 6.32602 6.06473 16.0065L18.3378 23.0926C22.3289 17.6484 28.7496 14.0868 36.0004 14.087C41.2861 14.0871 46.1313 15.9766 49.9158 19.1074C50.8423 19.8737 52.1965 19.8035 53.0466 18.9534L59.7306 12.2694C60.6945 11.3056 60.6428 9.72113 59.6144 8.82676Z" fill="#F5F5F5"/>
</g>
</g>
<g id="Group_5">
<g id="Group_6">
<path id="Vector_3" d="M71.7535 31.8347C71.6133 30.6429 70.6113 29.7408 69.4117 29.7408L39.9132 29.7393C38.6166 29.7393 37.5653 30.7904 37.5653 32.0871V41.4706C37.5653 42.7672 38.6165 43.8185 39.9132 43.8185H56.4434C54.9208 47.7812 52.2762 51.1877 48.9094 53.6641L55.9305 65.825C62.9978 61.0359 68.3712 53.795 70.7379 45.2472C72.0246 40.5997 72.2562 36.1056 71.7535 31.8347Z" fill="#F5F5F5"/>
</g>
</g>
<g id="Group_7">
<g id="Group_8">
<path id="Vector_4" d="M44.8495 56.0224C42.1418 57.2286 39.1527 57.9129 36.0004 57.9132C28.7415 57.9133 22.3244 54.3516 18.3361 48.9095L6.11536 55.9653C12.5506 65.5506 23.4724 72 36.0001 72C41.6634 72 47.0537 70.6156 51.8752 68.1913L44.8495 56.0224Z" fill="#F5F5F5"/>
</g>
</g>
</g>
<defs>
<clipPath id="clip0_1057_416">
<rect width="72" height="72" fill="white"/>
</clipPath>
</defs>
</svg>
