<svg width="90" height="90" viewBox="0 0 90 90" fill="none" xmlns="http://www.w3.org/2000/svg">
<g filter="url(#filter0_d_1057_290)">
<rect x="5" y="5" width="80" height="80" rx="24" fill="url(#paint0_radial_1057_290)"/>
</g>
<g clip-path="url(#clip0_1057_290)">
<path d="M28.8157 33.2803C29.4156 33.2803 29.9019 32.794 29.9019 32.1942C29.9019 31.5943 29.4156 31.108 28.8157 31.108C28.2159 31.108 27.7296 31.5943 27.7296 32.1942C27.7296 32.794 28.2159 33.2803 28.8157 33.2803Z" fill="#1ACDB8" stroke="#1ACDB8" stroke-width="0.2"/>
<path d="M32.5658 33.2803C33.1657 33.2803 33.652 32.794 33.652 32.1942C33.652 31.5943 33.1657 31.108 32.5658 31.108C31.966 31.108 31.4797 31.5943 31.4797 32.1942C31.4797 32.794 31.966 33.2803 32.5658 33.2803Z" fill="#1ACDB8" stroke="#1ACDB8" stroke-width="0.2"/>
<path d="M36.3159 33.2803C36.9158 33.2803 37.4021 32.794 37.4021 32.1942C37.4021 31.5943 36.9158 31.108 36.3159 31.108C35.7161 31.108 35.2298 31.5943 35.2298 32.1942C35.2298 32.794 35.7161 33.2803 36.3159 33.2803Z" fill="#1ACDB8" stroke="#1ACDB8" stroke-width="0.2"/>
<path d="M39.6552 53.4702C39.6552 55.198 39.9648 56.8774 40.557 58.4453H26.5076C25.9344 58.4453 25.4678 57.9787 25.4678 57.4055V36.0667H65.4361V43.027C65.4361 43.46 65.7871 43.8109 66.22 43.8109C66.653 43.8109 67.0039 43.46 67.0039 43.027V30.5296C67.0039 29.0917 65.8343 27.922 64.3963 27.922H38.168C37.735 27.922 37.3841 28.2729 37.3841 28.7059C37.3841 29.1388 37.735 29.4898 38.168 29.4898H64.3963C64.9696 29.4898 65.4361 29.9563 65.4361 30.5296V34.4989H25.4678V30.5296C25.4678 29.9563 25.9344 29.4898 26.5076 29.4898H34.6686C35.1015 29.4898 35.4525 29.1388 35.4525 28.7059C35.4525 28.2729 35.1015 27.922 34.6686 27.922H26.5076C25.0697 27.922 23.9 29.0917 23.9 30.5296V57.4054C23.9 58.8433 25.0697 60.013 26.5076 60.013H41.2638C41.9125 61.2427 42.7484 62.3809 43.7583 63.3907C46.4079 66.0404 49.9314 67.5 53.6789 67.5C56.3694 67.5 58.9445 66.747 61.1639 65.3416L65.5612 69.7389C65.9391 70.1168 66.4453 70.3307 66.9675 70.3506C67.0984 70.7074 67.3055 71.0315 67.5801 71.3063C68.6074 72.3715 70.4634 72.3303 71.4313 71.2036C72.362 70.1694 72.3154 68.5314 71.3274 67.5494C71.0536 67.2771 70.7312 67.0717 70.3766 66.9416C70.3565 66.4195 70.1427 65.9132 69.7648 65.5354L65.4065 61.177C66.9008 58.91 67.7026 56.2527 67.7026 53.4702C67.7026 49.719 66.2453 46.1954 63.5995 43.5496C60.9498 40.8998 57.4263 39.4404 53.6789 39.4404C49.9315 39.4404 46.4079 40.8998 43.7583 43.5496C41.1124 46.1954 39.6552 49.7189 39.6552 53.4702ZM70.2655 70.1555L70.264 70.1572C69.8701 70.6153 69.1081 70.6353 68.6909 70.2002L68.6894 70.1988C68.5194 70.0287 68.4132 69.8134 68.3818 69.5754C68.3205 69.0111 67.7234 68.613 67.179 68.768C66.9936 68.816 66.8039 68.7645 66.6698 68.6304L62.456 64.4168C63.1813 63.834 63.8638 63.1644 64.4609 62.4488L68.6562 66.6441C68.7902 66.7781 68.8417 66.9677 68.7938 67.153C68.6393 67.6964 69.0354 68.2949 69.5997 68.356C69.8373 68.387 70.0522 68.4924 70.2221 68.6614L70.2221 68.6614C70.6258 69.0626 70.645 69.7341 70.2655 70.1555ZM44.8669 62.2822C42.517 59.9324 41.2231 56.8032 41.2231 53.4702C41.2231 50.1372 42.5171 47.0081 44.8669 44.6582C47.2208 42.3043 50.3498 41.0082 53.6789 41.0082C57.0079 41.0082 60.137 42.3043 62.4909 44.6582C64.8408 47.0081 66.1347 50.1372 66.1347 53.4702C66.1347 56.8032 64.8407 59.9324 62.4909 62.2822C60.137 64.6361 57.0079 65.9323 53.6789 65.9323C50.3499 65.9323 47.2207 64.6361 44.8669 62.2822Z" fill="#1ACDB8" stroke="#1ACDB8" stroke-width="0.2"/>
<path d="M61.6537 45.4955C59.5237 43.3655 56.6912 42.1922 53.679 42.1922L50.103 64.0665L50.0711 64.1613C50.0711 64.1613 50.0711 64.1613 50.0711 64.1613C50.4815 64.2995 50.9261 64.0787 51.0641 63.6684C51.2022 63.2581 50.9815 62.8135 50.5712 62.6754C49.1517 62.1976 47.8874 61.411 46.8129 60.3365C44.9787 58.5023 43.9688 56.0642 43.9688 53.4703C43.9688 50.8764 44.9788 48.4383 46.8129 46.6042C48.647 44.7701 51.0851 43.7602 53.679 43.7602C56.2729 43.7602 58.7109 44.7702 60.5451 46.6042C64.3311 50.3901 64.3311 56.5505 60.5451 60.3365C58.7109 62.1706 56.2729 63.1804 53.679 63.1804C53.2461 63.1804 52.8951 63.5314 52.8951 63.9643C52.8951 64.3973 53.2461 64.7482 53.679 64.7482C56.6913 64.7482 59.5237 63.575 61.6537 61.445C66.051 57.0476 66.051 49.8929 61.6537 45.4955Z" fill="#1ACDB8" stroke="#1ACDB8" stroke-width="0.2"/>
<path d="M54.0174 55.3609H52.5473V54.2541H53.8512C54.2842 54.2541 54.6351 53.9031 54.6351 53.4702C54.6351 53.0372 54.2842 52.6863 53.8512 52.6863H52.5473V51.5794H54.0174C54.4504 51.5794 54.8013 51.2284 54.8013 50.7955C54.8013 50.3625 54.4504 50.0116 54.0174 50.0116H51.7634C51.3305 50.0116 50.9795 50.3625 50.9795 50.7955V56.1449C50.9795 56.5779 51.3305 56.9289 51.7634 56.9289H54.0174H54.0175C54.4504 56.9287 54.8013 56.5778 54.8013 56.1449C54.8013 55.7119 54.4504 55.3609 54.0174 55.3609Z" fill="#1ACDB8" stroke="#1ACDB8" stroke-width="0.2"/>
<path d="M46.2295 54.8429L46.2295 54.8429C46.5352 55.1802 47.021 55.3856 47.53 55.3856C48.0138 55.3856 48.3235 55.0986 48.3655 54.8617L48.3655 54.8616C48.3908 54.7198 48.3108 54.5933 48.1657 54.48C48.0229 54.3685 47.8413 54.2902 47.7273 54.2481C47.7273 54.2481 47.7273 54.2481 47.7273 54.2481L47.7619 54.1543C46.9243 53.8454 46.1806 53.5143 46.1494 53.5004L46.2295 54.8429ZM46.2295 54.8429C45.9388 54.5221 45.4431 54.4977 45.1222 54.7883L45.1221 54.7884C44.8014 55.0792 44.777 55.5748 45.0677 55.8957L45.0677 55.8957C45.6694 56.5596 46.5897 56.9534 47.5299 56.9534C48.7121 56.9534 49.7197 56.1973 49.9091 55.1372L49.9091 55.1372C49.9804 54.7374 49.9254 54.2767 49.6724 53.8498C49.4191 53.4224 48.9715 53.036 48.2699 52.7772L46.2295 54.8429ZM46.738 51.9498C46.7431 51.9147 46.7588 51.8514 46.8075 51.7866C46.8553 51.7229 46.9393 51.6519 47.0909 51.6062L47.0909 51.6062C47.4382 51.5015 47.7772 51.5752 48.038 51.6822C48.2931 51.7869 48.4636 51.9198 48.4763 51.9299C48.8076 52.204 49.2987 52.16 49.576 51.8303L49.576 51.8302C49.8545 51.4989 49.8118 51.0043 49.4804 50.7257L49.4803 50.7256C49.4503 50.7005 49.124 50.4316 48.615 50.2255C48.1055 50.0193 47.407 49.8735 46.6387 50.105C45.856 50.3408 45.2962 50.9606 45.1861 51.727L46.738 51.9498ZM46.738 51.9498C46.7305 52.0025 46.729 52.111 46.8204 52.192L46.738 51.9498Z" fill="#1ACDB8" stroke="#1ACDB8" stroke-width="0.2"/>
<path d="M62.5316 53.4703C62.5316 51.5495 60.9691 49.9869 59.0482 49.9869C57.1275 49.9869 55.565 51.5494 55.565 53.4703C55.565 55.391 57.1275 56.9535 59.0482 56.9535C60.9691 56.9535 62.5316 55.391 62.5316 53.4703ZM57.1329 53.4703C57.1329 52.4142 57.9923 51.5547 59.0483 51.5547C60.1044 51.5547 60.9639 52.4141 60.9639 53.4703C60.9639 54.5263 60.1045 55.3857 59.0483 55.3857C57.9923 55.3857 57.1329 54.5263 57.1329 53.4703Z" fill="#1ACDB8" stroke="#1ACDB8" stroke-width="0.2"/>
<path d="M40.0432 43.9787C40.0432 40.3155 37.0631 37.3354 33.3999 37.3354C29.7367 37.3354 26.7567 40.3155 26.7567 43.9787C26.7567 47.6419 29.7367 50.622 33.3999 50.622C37.0631 50.622 40.0432 47.6419 40.0432 43.9787ZM37.1523 43.1948C37.0752 41.986 36.8201 40.848 36.4098 39.8962C37.462 40.6739 38.2035 41.8474 38.4134 43.1948H37.1523ZM31.763 40.6624C32.0058 40.0528 32.3041 39.5851 32.616 39.2859V43.1948H31.2184C31.289 42.2099 31.4893 41.3496 31.763 40.6624ZM32.616 44.7626V48.6714C32.3041 48.3722 32.0058 47.9045 31.763 47.2949C31.4893 46.6078 31.2891 45.7474 31.2185 44.7626H32.616ZM34.1838 48.6715V44.7626H35.5815C35.5109 45.7475 35.3107 46.6078 35.0369 47.295C34.7941 47.9046 34.4958 48.3723 34.1838 48.6715ZM34.1838 43.1948V39.2859C34.4958 39.5851 34.7941 40.0528 35.0369 40.6624C35.3107 41.3496 35.5109 42.2099 35.5815 43.1948H34.1838ZM28.3865 43.1948C28.5964 41.8474 29.3379 40.674 30.39 39.8962C29.9798 40.848 29.7246 41.986 29.6475 43.1948H28.3865ZM29.6475 44.7626C29.7247 45.9714 29.9798 47.1094 30.3901 48.0612C29.338 47.2835 28.5964 46.11 28.3865 44.7626H29.6475ZM37.1524 44.7626H38.4134C38.2036 46.1101 37.462 47.2835 36.4098 48.0612C36.8201 47.1094 37.0753 45.9714 37.1524 44.7626Z" fill="#1ACDB8" stroke="#1ACDB8" stroke-width="0.2"/>
<path d="M38.086 53.6262C38.086 53.1932 37.735 52.8423 37.3021 52.8423H28.2721C27.8392 52.8423 27.4882 53.1932 27.4882 53.6262C27.4882 54.0591 27.8392 54.4101 28.2721 54.4101H37.3021C37.7349 54.4101 38.086 54.0591 38.086 53.6262Z" fill="#1ACDB8" stroke="#1ACDB8" stroke-width="0.2"/>
<path d="M28.272 55.768C27.8391 55.768 27.4881 56.119 27.4881 56.5519C27.4881 56.9849 27.8391 57.3359 28.272 57.3359H31.0423C31.4753 57.3359 31.8262 56.9849 31.8262 56.5519C31.8262 56.119 31.4753 55.768 31.0423 55.768H28.272Z" fill="#1ACDB8" stroke="#1ACDB8" stroke-width="0.2"/>
</g>
<defs>
<filter id="filter0_d_1057_290" x="0" y="0" width="90" height="90" filterUnits="userSpaceOnUse" color-interpolation-filters="sRGB">
<feFlood flood-opacity="0" result="BackgroundImageFix"/>
<feColorMatrix in="SourceAlpha" type="matrix" values="0 0 0 0 0 0 0 0 0 0 0 0 0 0 0 0 0 0 127 0" result="hardAlpha"/>
<feOffset/>
<feGaussianBlur stdDeviation="2.5"/>
<feComposite in2="hardAlpha" operator="out"/>
<feColorMatrix type="matrix" values="0 0 0 0 0 0 0 0 0 0 0 0 0 0 0 0 0 0 0.25 0"/>
<feBlend mode="normal" in2="BackgroundImageFix" result="effect1_dropShadow_1057_290"/>
<feBlend mode="normal" in="SourceGraphic" in2="effect1_dropShadow_1057_290" result="shape"/>
</filter>
<radialGradient id="paint0_radial_1057_290" cx="0" cy="0" r="1" gradientUnits="userSpaceOnUse" gradientTransform="translate(45 45) rotate(90) scale(47.5)">
<stop stop-color="white"/>
<stop offset="1" stop-color="#EDEDED"/>
</radialGradient>
<clipPath id="clip0_1057_290">
<rect width="48" height="48" fill="white" transform="translate(24 26)"/>
</clipPath>
</defs>
</svg>
