<svg width="90" height="90" viewBox="0 0 90 90" fill="none" xmlns="http://www.w3.org/2000/svg">
<g filter="url(#filter0_d_1057_305)">
<rect x="5" y="5" width="80" height="80" rx="24" fill="url(#paint0_radial_1057_305)"/>
</g>
<g clip-path="url(#clip0_1057_305)">
<path d="M42.4455 66.8787H45.5591C45.8819 66.8787 46.1439 66.6176 46.1439 66.2949C46.1439 65.9722 45.882 65.711 45.5591 65.711H42.4455C42.1227 65.711 41.8606 65.9722 41.8606 66.2949C41.8606 66.6176 42.1227 66.8787 42.4455 66.8787Z" fill="#1ACDB8" stroke="#1ACDB8" stroke-width="0.2"/>
<path d="M44.6491 58.6061C44.4921 58.2705 44.0922 58.1258 43.756 58.2819C43.4197 58.4382 43.2738 58.837 43.4308 59.1727C43.5878 59.5083 43.9877 59.6531 44.3239 59.4969C44.6602 59.3406 44.8061 58.9418 44.6491 58.6061Z" fill="#1ACDB8" stroke="#1ACDB8" stroke-width="0.2"/>
<path d="M39.3233 56.0319L39.3233 56.0319C39.1643 55.751 39.2636 55.3948 39.5448 55.2361L39.5449 55.236C39.8262 55.0778 40.1826 55.1765 40.3416 55.4572L40.3416 55.4572L43.3354 60.7448L45.7905 59.6038L42.7592 55.0941L42.8422 55.0384L42.7592 55.0941C42.5792 54.8262 42.6508 54.4635 42.9191 54.2839C42.9191 54.2839 42.9191 54.2838 42.9192 54.2838L42.9748 54.3669L39.3233 56.0319ZM39.3233 56.0319L42.5814 61.786L39.3233 56.0319Z" fill="#1ACDB8" stroke="#1ACDB8" stroke-width="0.2"/>
<path d="M58.4563 55.331C58.4563 57.8469 60.504 59.8934 63.021 59.8934C65.538 59.8934 67.5858 57.8469 67.5858 55.331C67.5858 52.815 65.538 50.7684 63.021 50.7684C60.504 50.7684 58.4563 52.815 58.4563 55.331ZM59.626 55.3311C59.626 53.4592 61.149 51.9363 63.021 51.9363C64.893 51.9363 66.4161 53.4592 66.4161 55.3311C66.4161 57.2028 64.893 58.7258 63.021 58.7258C61.149 58.7258 59.626 57.2027 59.626 55.3311Z" fill="#1ACDB8" stroke="#1ACDB8" stroke-width="0.2"/>
<path d="M40.02 27.4689C40.02 29.9849 42.0678 32.0314 44.5849 32.0314C47.1019 32.0314 49.1497 29.9849 49.1497 27.4689C49.1497 24.953 47.1019 22.9065 44.5849 22.9065C42.0678 22.9065 40.02 24.953 40.02 27.4689ZM41.1897 27.469C41.1897 25.5973 42.7128 24.0743 44.5849 24.0743C46.4568 24.0743 47.98 25.5973 47.98 27.469C47.98 29.3408 46.4569 30.8637 44.5849 30.8637C42.7128 30.8637 41.1897 29.3408 41.1897 27.469Z" fill="#1ACDB8" stroke="#1ACDB8" stroke-width="0.2"/>
<path d="M59.6001 63.5467H28.308L28.3086 53.8397V53.8397C28.3086 53.5171 28.0466 53.2558 27.7237 53.2558C27.401 53.2558 27.1388 53.517 27.1388 53.8397C27.1388 53.8397 27.1388 53.8397 27.1388 53.8397L27.1382 63.5467H25.6442C25.321 63.5467 25.0593 63.8094 25.0593 64.1317C25.0593 66.8171 27.2481 69.0012 29.9383 69.0012H57.9708C60.6609 69.0012 62.8497 66.8171 62.8497 64.1305C62.8498 63.8079 62.5878 63.5467 62.2649 63.5467H60.7699L60.7701 60.9869C60.7701 60.6643 60.5081 60.403 60.1852 60.403C59.8624 60.403 59.6003 60.6642 59.6003 60.9869L59.6001 63.5467ZM57.9708 67.8335H29.9384C28.092 67.8335 26.5562 66.4801 26.2752 64.7144H61.6343C61.3533 66.4795 59.8175 67.8335 57.9708 67.8335Z" fill="#1ACDB8" stroke="#1ACDB8" stroke-width="0.2"/>
<path d="M38.1391 48.8902L38.1391 48.8902C38.4314 48.7543 38.7795 48.8805 38.916 49.1729L38.1391 48.8902ZM38.1391 48.8902L37.6252 49.129C37.6252 49.129 37.6252 49.129 37.6252 49.129M38.1391 48.8902L37.6252 49.129M37.6252 49.129C37.0699 49.3869 37.2585 50.2423 37.8723 50.2423M37.6252 49.129L37.8723 50.2423M37.8723 50.2423C37.955 50.2423 38.0391 50.2247 38.119 50.1875L37.8723 50.2423Z" fill="#1ACDB8" stroke="#1ACDB8" stroke-width="0.2"/>
<path d="M38.1648 50.451C38.1648 50.451 38.1648 50.451 38.1648 50.451L38.6786 50.2122C38.6787 50.2122 38.6787 50.2122 38.6787 50.2122C38.9712 50.0761 39.3192 50.2024 39.4556 50.4949M38.1648 50.451L39.1302 51.18L39.1723 51.2707C39.4651 51.1348 39.5921 50.7873 39.4556 50.4949M38.1648 50.451C38.1648 50.451 38.1648 50.451 38.1648 50.451C37.6095 50.7089 37.7981 51.5643 38.4119 51.5643C38.4946 51.5643 38.5787 51.5467 38.6586 51.5095L38.1648 50.451ZM39.4556 50.4949L39.365 50.5372L39.4556 50.4949C39.4556 50.4949 39.4556 50.4949 39.4556 50.4949Z" fill="#1ACDB8" stroke="#1ACDB8" stroke-width="0.2"/>
<path d="M39.4231 52.8058C39.3432 52.843 39.2591 52.8605 39.1764 52.8605C38.5626 52.8605 38.3738 52.0052 38.9291 51.7473L38.9292 51.7473L39.4429 51.5084C39.4429 51.5084 39.4429 51.5084 39.4429 51.5084C39.7356 51.3723 40.0836 51.4987 40.22 51.7911M39.4231 52.8058L39.423 52.8058L39.3808 52.7151L39.4231 52.8058ZM39.4231 52.8058L39.9367 52.567L39.8946 52.4763L39.9368 52.5669C40.2295 52.431 40.3565 52.0835 40.22 51.7911M40.22 51.7911C40.22 51.7911 40.22 51.7911 40.22 51.7911L40.1293 51.8333L40.22 51.7911Z" fill="#1ACDB8" stroke="#1ACDB8" stroke-width="0.2"/>
<path d="M27.7643 51.5568C28.483 51.5568 29.1685 51.4139 29.7953 51.1568L29.8128 61.2637C29.8134 61.5861 30.0753 61.8466 30.3976 61.8466H30.3985H30.3987C30.7215 61.8461 30.9831 61.5844 30.9825 61.2617L30.9646 50.4963C32.2571 49.5343 33.1031 48.0059 33.1268 46.282H39.5093C38.7845 46.8799 38.0268 47.3659 37.3512 47.6799L35.4133 48.5805C33.7095 49.3722 32.9456 51.4506 33.7431 53.1551C34.5477 54.8752 36.6061 55.6215 38.3309 54.8197L40.2687 53.9192C41.2555 53.4607 42.5708 53.1245 43.8983 53.0144C45.2268 52.9042 46.5564 53.0214 47.5763 53.4594L52.5486 55.5947C52.5489 55.5948 52.5492 55.5949 52.5495 55.595C52.9681 55.7831 53.3708 55.7825 53.7093 55.6227C54.0466 55.4634 54.3079 55.152 54.4577 54.7412C54.7238 54.0115 54.7713 52.8076 54.5721 51.3219C54.377 49.8679 53.9439 48.1318 53.2348 46.282H56.9516V61.2629C56.9516 61.5856 57.2137 61.8467 57.5365 61.8467C57.8594 61.8467 58.1214 61.5856 58.1214 61.2629V45.698C58.1214 45.3753 57.8594 45.1142 57.5365 45.1142H52.7555C52.5233 44.5825 52.2745 44.0586 52.0094 43.5426H58.8591C59.2683 43.5426 59.601 43.8748 59.601 44.2822L59.6006 46.8069C59.6006 47.1296 59.8626 47.3909 60.1854 47.3909H60.1855C60.5082 47.3909 60.7704 47.1297 60.7704 46.807L60.7708 44.2822C60.771 43.2301 59.9132 42.3748 58.8593 42.3748H51.3734C50.4743 40.8164 49.4519 39.403 48.395 38.2745C47.9511 37.8005 47.3125 37.1807 46.6453 36.7421C46.3117 36.5228 45.9667 36.3459 45.632 36.2568C45.2966 36.1675 44.965 36.1648 44.6662 36.3035L44.6662 36.3035C44.2784 36.4838 44.0704 36.8493 43.9589 37.219L43.9588 37.2191L42.408 42.3748H31.5013C30.5352 41.4368 29.2164 40.8578 27.7643 40.8578C24.8071 40.8578 22.401 43.2572 22.401 46.2073C22.401 49.1574 24.8071 51.5568 27.7643 51.5568ZM35.9525 49.6171C36.3155 51.1053 36.9732 52.5091 37.8838 53.7427C37.8239 53.7701 37.7402 53.8056 37.638 53.8417C37.4186 53.9191 37.1169 53.9981 36.7837 54.0077C36.451 54.0172 36.0892 53.9574 35.7456 53.7594C35.4025 53.5618 35.0703 53.2223 34.8027 52.6603C34.2535 51.5063 34.8327 50.1634 35.9525 49.6171ZM37.7985 48.738C38.1604 48.5578 38.5581 48.356 38.7887 48.2267C39.1531 49.7622 39.8282 51.2039 40.774 52.469C40.5265 52.5619 40.1161 52.7357 39.7453 52.8962C39.52 52.9937 39.3073 53.0871 39.151 53.1561L38.966 53.2381C38.0255 52.0229 37.3653 50.6119 37.0356 49.113L37.2169 49.0247C37.3704 48.9497 37.5788 48.8473 37.7985 48.738ZM48.365 46.3588L48.365 46.3587C48.365 46.3587 48.365 46.3587 48.3649 46.3586L48.3371 46.2991L48.3334 46.2911L48.3332 46.2907L48.3328 46.2899L48.3326 46.2894L48.3326 46.2894L48.3322 46.2885L48.3319 46.288L48.3316 46.2873L48.3274 46.2796C48.3245 46.2787 48.3216 46.2779 48.3187 46.2772C48.1605 46.0441 47.852 45.9534 47.588 46.0761L47.588 46.0761L47.3971 46.1648L47.2188 45.7836L47.9808 45.4294C47.9808 45.4294 47.9808 45.4294 47.9808 45.4294C48.4855 45.1949 49.0869 45.4135 49.3218 45.9153C49.5537 46.411 49.33 47.0187 48.8341 47.2494C48.8341 47.2494 48.8341 47.2494 48.8341 47.2494L48.0706 47.6042L47.8921 47.2228L48.0817 47.1347L48.0817 47.1347C48.3459 47.0119 48.475 46.7171 48.3975 46.4459C48.3988 46.4432 48.4001 46.4405 48.4013 46.4377L48.3983 46.4302L48.398 46.4295L48.3978 46.4291L48.3973 46.4282L48.3973 46.4281L48.3971 46.4277L48.3967 46.4268L48.3965 46.4264L48.3928 46.4184L48.365 46.3589C48.365 46.3588 48.365 46.3588 48.365 46.3588ZM53.2229 54.5867C53.2195 54.5868 53.2138 54.5868 53.2054 54.586C53.1838 54.584 53.1511 54.5773 53.1064 54.5615C53.0171 54.53 52.8877 54.465 52.7162 54.3427C52.3735 54.0983 51.8716 53.631 51.1994 52.7683C50.3525 51.6815 49.4573 50.2574 48.6014 48.6455L49.3278 48.308L49.2856 48.2174L49.3278 48.308C50.4024 47.8086 50.885 46.4969 50.3815 45.4212C49.8738 44.3359 48.5752 43.8648 47.4873 44.3709C47.4873 44.3709 47.4872 44.3709 47.4872 44.3709L46.7593 44.7092C46.0239 42.906 45.5316 41.3233 45.2619 40.0781C45.1246 39.4442 45.0454 38.8995 45.0208 38.4586C44.9961 38.015 45.0273 37.6862 45.1032 37.4782L45.1032 37.4782C45.1211 37.4289 45.1346 37.3981 45.1506 37.3784C45.1615 37.3651 45.172 37.3579 45.1963 37.3579C45.2519 37.3579 45.3469 37.377 45.4828 37.4325C45.617 37.4873 45.7851 37.5751 45.9853 37.7059C46.3856 37.9675 46.9098 38.3983 47.5408 39.0721L47.6138 39.0037L47.5408 39.0721C48.9673 40.5952 50.3383 42.6827 51.3991 44.95C52.3357 46.9517 52.9538 48.9546 53.2729 50.633C53.4325 51.4722 53.5171 52.2288 53.5298 52.8625C53.5425 53.4982 53.4826 54.0026 53.3589 54.3418C53.3238 54.4377 53.289 54.5014 53.2614 54.5411C53.2419 54.5691 53.2283 54.5819 53.2229 54.5867ZM53.227 54.5995L53.2639 54.6791L53.2262 54.5995C53.2262 54.5995 53.2262 54.5995 53.2263 54.5995C53.2265 54.5995 53.2267 54.5995 53.227 54.5995ZM27.7643 50.389C25.4517 50.389 23.5707 48.5127 23.5707 46.2073C23.5707 43.9019 25.4517 42.0256 27.7643 42.0256C30.0767 42.0256 31.9578 43.9019 31.9578 46.2073C31.9578 48.5127 30.0767 50.389 27.7643 50.389ZM40.7381 45.1141H33.0136C32.8962 44.5529 32.6898 44.0242 32.411 43.5425H41.8986C41.5886 44.0878 41.1888 44.6186 40.7381 45.1141ZM48.0388 52.3866C46.2989 51.6394 43.9686 51.6827 41.99 52.1277C40.8976 50.7917 40.1578 49.211 39.8328 47.5183C41.3116 46.3973 42.7257 44.8318 43.3702 43.1694C43.6313 42.4975 43.8298 41.792 44.0257 41.0954C44.0744 40.9223 44.1229 40.7498 44.1722 40.5785C44.642 42.5969 45.5609 45.035 46.5709 47.1936C47.3877 48.9394 48.7352 51.4382 50.1233 53.2818L48.0388 52.3866Z" fill="#1ACDB8" stroke="#1ACDB8" stroke-width="0.2"/>
<path d="M52.1821 23.7212L52.1821 23.7213L52.1757 36.2772C52.1757 36.2772 52.1757 36.2772 52.1757 36.2772C52.1754 36.594 52.4429 36.8614 52.7605 36.8614H68.3776C68.7005 36.8614 68.9625 36.6002 68.9625 36.2775V32.4985C68.9625 32.3338 68.8896 32.1755 68.7797 32.059C68.6697 31.9425 68.5152 31.8602 68.3448 31.8602H53.3476L53.3514 24.3054H67.7926V28.5317V28.5317C67.7928 28.8544 68.0548 29.1155 68.3775 29.1155C68.7004 29.1155 68.9624 28.8544 68.9624 28.5317V23.7215C68.9624 23.3988 68.7004 23.1377 68.3775 23.1377H52.767C52.4442 23.1377 52.1823 23.3987 52.1821 23.7212ZM67.7927 33.0279V35.6935H53.3457L53.347 33.0279H67.7927Z" fill="#1ACDB8" stroke="#1ACDB8" stroke-width="0.2"/>
<path d="M54.4574 34.9349H55.4292C55.752 34.9349 56.0141 34.6737 56.0141 34.351C56.0141 34.0283 55.752 33.7672 55.4292 33.7672H54.4574C54.1346 33.7672 53.8725 34.0283 53.8725 34.351C53.8725 34.6737 54.1346 34.9349 54.4574 34.9349Z" fill="#1ACDB8" stroke="#1ACDB8" stroke-width="0.2"/>
<path d="M66.794 33.7741C66.7501 33.4948 66.508 33.2815 66.2162 33.2815C65.9244 33.2815 65.6823 33.4948 65.6384 33.7741C65.3588 33.8178 65.1448 34.0592 65.1448 34.3509C65.1448 34.6426 65.3589 34.884 65.6384 34.9277C65.6823 35.207 65.9244 35.4203 66.2162 35.4203C66.508 35.4203 66.7501 35.207 66.794 34.9277C67.0736 34.8839 67.2876 34.6425 67.2876 34.3509C67.2876 34.0592 67.0736 33.8178 66.794 33.7741Z" fill="#1ACDB8" stroke="#1ACDB8" stroke-width="0.2"/>
<path d="M63.9975 33.7671H60.0636C59.8919 33.5523 59.6276 33.4139 59.3305 33.4139C59.0334 33.4139 58.769 33.5523 58.5974 33.7671H57.1215C56.7987 33.7671 56.5366 34.0282 56.5366 34.3509C56.5366 34.6736 56.7987 34.9348 57.1215 34.9348H58.5974C58.7691 35.1495 59.0333 35.288 59.3305 35.288C59.6277 35.288 59.8919 35.1495 60.0636 34.9348H63.9975C64.3204 34.9348 64.5824 34.6736 64.5824 34.3509C64.5824 34.0282 64.3204 33.7671 63.9975 33.7671Z" fill="#1ACDB8" stroke="#1ACDB8" stroke-width="0.2"/>
<path d="M61.5557 30.5193L61.5553 30.5199L61.5664 30.5241C61.9277 30.6633 62.2336 30.6259 62.4515 30.4686C62.6666 30.3133 62.7778 30.0537 62.7778 29.784V26.3615C62.7778 25.746 62.1005 25.3386 61.5559 25.626L61.5559 25.626L58.3134 27.3372C58.3134 27.3372 58.3134 27.3372 58.3134 27.3372C57.7316 27.6439 57.7324 28.5015 58.3132 28.8081L58.3133 28.8082L61.5557 30.5193ZM61.6081 26.9193V29.2261L59.4225 28.0727L61.6081 26.9193Z" fill="#1ACDB8" stroke="#1ACDB8" stroke-width="0.2"/>
<path d="M60.186 49.4955C60.5848 49.4955 60.9084 49.1727 60.9084 48.7741C60.9084 48.3756 60.5848 48.0528 60.186 48.0528C59.7873 48.0528 59.4637 48.3756 59.4637 48.7741C59.4637 49.1727 59.7873 49.4955 60.186 49.4955Z" fill="#1ACDB8" stroke="#1ACDB8" stroke-width="0.2"/>
<path d="M68.3776 31.213C68.7764 31.213 69.1 30.8902 69.1 30.4917C69.1 30.0931 68.7764 29.7704 68.3776 29.7704C67.9788 29.7704 67.6553 30.0931 67.6553 30.4917C67.6553 30.8902 67.9788 31.213 68.3776 31.213Z" fill="#1ACDB8" stroke="#1ACDB8" stroke-width="0.2"/>
<path d="M25.7621 37.9338V37.9338V28.3985C25.7621 28.0758 25.5001 27.8147 25.1772 27.8147H21.4849C21.162 27.8147 20.9 28.0758 20.9 28.3985V37.9338C20.9 38.2565 21.162 38.5177 21.4849 38.5177H25.1772C25.5 38.5177 25.762 38.2565 25.7621 37.9338ZM24.5924 28.9824V37.3499H22.0697V28.9824H24.5924Z" fill="#1ACDB8" stroke="#1ACDB8" stroke-width="0.2"/>
<path d="M37.2109 29.7057V29.7054C37.212 29.364 36.9267 29.0771 36.5843 29.0771H36.584L30.3281 29.0641L30.3279 29.0641C30.2969 29.064 30.2657 29.0615 30.235 29.0565L30.2348 29.0565C29.867 28.9963 29.6665 28.8101 29.5634 28.6583C29.4603 28.5066 29.361 28.2516 29.4411 27.8881C29.4411 27.888 29.4412 27.888 29.4412 27.8879L29.5388 27.9095C29.5443 27.8845 29.5518 27.86 29.5612 27.8363L37.2109 29.7057ZM37.2109 29.7057C37.2109 30.0479 36.9317 30.3268 36.5882 30.3268H33.6977C33.3728 30.3268 33.1128 30.5979 33.1128 30.9185C33.1128 31.2412 33.3749 31.5023 33.6977 31.5023H35.8999C36.2476 31.5023 36.5302 31.7846 36.5302 32.1309C36.5302 32.473 36.251 32.7519 35.9075 32.7519H33.5461C33.2181 32.7519 32.9496 33.0325 32.9624 33.3594C32.9745 33.6703 33.2362 33.9275 33.5505 33.9275H35.2193C35.567 33.9275 35.8497 34.2098 35.8497 34.5561C35.8497 34.8982 35.5705 35.1772 35.2269 35.1772H33.1278C32.7303 35.1772 32.451 35.5765 32.5734 35.9473C32.6509 36.1884 32.8758 36.3527 33.1303 36.3527H34.5387C34.8865 36.3527 35.1692 36.6351 35.1692 36.9814C35.1692 37.3236 34.8899 37.6025 34.5463 37.6025H28.332C28.0092 37.6025 27.7472 37.8637 27.7472 38.1864C27.7472 38.509 28.0091 38.7702 28.332 38.7702H34.5463C35.5347 38.7702 36.3389 37.9679 36.3389 36.9815C36.3389 36.6658 36.257 36.3689 36.1131 36.1108M37.2109 29.7057L36.1131 36.1108M36.7936 33.6854C37.3342 33.3773 37.7 32.7961 37.7 32.1308C37.7 31.8151 37.6181 31.5182 37.4742 31.2602C38.0147 30.9523 38.3805 30.3716 38.3806 29.7073C38.3806 29.7074 38.3806 29.7074 38.3806 29.7075L36.7936 33.6854ZM36.7936 33.6854C36.9375 33.9435 37.0195 34.2405 37.0195 34.5561C37.0195 35.2215 36.6537 35.8027 36.1131 36.1108M36.7936 33.6854L36.1131 36.1108M30.0467 26.0579C29.9627 26.4416 29.6871 27.2445 29.4682 27.7995L36.5852 27.9091L30.683 27.8971C30.8884 27.3461 31.1043 26.6959 31.1894 26.3076L31.0917 26.2862L31.1894 26.3076C31.5522 24.6526 30.9812 22.8067 29.6761 21.3668C29.5143 21.1883 29.2234 21.0337 28.9496 21.0039C28.8112 20.9888 28.6677 21.0046 28.5459 21.0753C28.4213 21.1477 28.3311 21.2708 28.2905 21.4459L28.2905 21.4459C27.8058 23.5401 27.2002 25.2183 26.4932 26.4376L26.4932 26.4377C26.3314 26.7168 26.427 27.074 26.7066 27.2355L26.7066 27.2356C26.986 27.3968 27.3438 27.3015 27.5056 27.0226L27.5056 27.0226C28.1637 25.8874 28.7322 24.4136 29.2015 22.6342C29.9788 23.7087 30.2889 24.9533 30.0467 26.0579L30.0467 26.0579Z" fill="#1ACDB8" stroke="#1ACDB8" stroke-width="0.2"/>
<path d="M23.331 36.2493C23.7619 36.2493 24.1116 35.9007 24.1116 35.4702C24.1116 35.0397 23.7619 34.6911 23.331 34.6911C22.9001 34.6911 22.5503 35.0397 22.5503 35.4702C22.5503 35.9007 22.9001 36.2493 23.331 36.2493Z" fill="#1ACDB8" stroke="#1ACDB8" stroke-width="0.2"/>
<path d="M25.6969 45.2983L25.6968 45.2983C25.6941 45.4164 25.703 45.6123 25.754 45.7749C25.8067 45.9429 25.8868 46.0299 26.0019 46.0299C26.1135 46.0299 26.1926 45.9439 26.2456 45.7722C26.2965 45.6068 26.3065 45.407 26.3065 45.2822L25.6969 45.2983ZM25.6969 45.2983V45.296M25.6969 45.2983V45.296M25.6969 45.296C25.6969 45.1463 25.7176 44.9486 25.7736 44.7921M25.6969 45.296L25.7736 44.7921M25.7736 44.7921C25.8321 44.6286 25.9104 44.555 26.0019 44.555M25.7736 44.7921L26.0019 44.555M26.0019 44.555C26.1126 44.555 26.1892 44.6309 26.2415 44.7849M26.0019 44.555L26.2415 44.7849M26.2415 44.7849C26.2933 44.9372 26.3065 45.1307 26.3065 45.2821L26.2415 44.7849ZM24.6622 45.318L24.6622 45.3188C24.6667 45.8664 24.8282 46.2744 25.0781 46.5466C25.3279 46.8186 25.6594 46.9474 25.9878 46.9474C26.3264 46.9474 26.6672 46.8134 26.9225 46.5306C27.1778 46.2477 27.341 45.8237 27.341 45.2543C27.341 44.7711 27.2205 44.3674 26.9916 44.0824C26.7607 43.7949 26.4266 43.6374 26.0226 43.6374C25.6198 43.6374 25.2764 43.8148 25.036 44.1163C24.7968 44.4162 24.6622 44.8347 24.6622 45.318Z" fill="#1ACDB8" stroke="#1ACDB8" stroke-width="0.2"/>
<path d="M28.8341 43.6375H28.7759L28.7471 43.6882L25.9086 48.6855L25.8237 48.8349H25.9956H26.786H26.8442L26.873 48.7843L29.7115 43.7869L29.7963 43.6375H29.6245H28.8341Z" fill="#1ACDB8" stroke="#1ACDB8" stroke-width="0.2"/>
<path d="M28.1963 47.1854L28.1963 47.1847C28.1963 46.6169 28.3604 46.1943 28.6171 45.9124C28.8738 45.6306 29.2161 45.4973 29.5561 45.4973C29.9582 45.4973 30.2906 45.655 30.5202 45.9425C30.7478 46.2275 30.8676 46.6311 30.8675 47.1144L28.1963 47.1854ZM28.1963 47.1854C28.2004 47.7308 28.3618 48.1372 28.6117 48.4082M28.1963 47.1854L28.6117 48.4082M28.6117 48.4082C28.8615 48.6791 29.1929 48.8073 29.5213 48.8073M28.6117 48.4082L29.5213 48.8073M29.5213 48.8073C29.8584 48.8073 30.1975 48.6732 30.4514 48.3903M29.5213 48.8073L30.4514 48.3903M30.4514 48.3903C30.7054 48.1074 30.8675 47.6836 30.8675 47.1144L30.4514 48.3903ZM29.2234 47.1569H29.2234V47.1558C29.2234 46.9618 29.2546 46.7658 29.3153 46.6224C29.3779 46.4747 29.4555 46.4148 29.5354 46.4148C29.6487 46.4148 29.7273 46.4995 29.7797 46.6653C29.8305 46.826 29.8405 47.0204 29.8405 47.142C29.8405 47.2668 29.8305 47.4666 29.7795 47.632C29.7265 47.8035 29.6473 47.8897 29.5354 47.8897C29.4222 47.8897 29.3414 47.8039 29.2867 47.6369C29.2339 47.4753 29.222 47.2793 29.2234 47.1569Z" fill="#1ACDB8" stroke="#1ACDB8" stroke-width="0.2"/>
<path d="M63.8191 54.427L63.9207 54.485L63.9622 54.3756L64.1881 53.7801L64.2164 53.7054L64.1498 53.6613C63.9503 53.5291 63.7294 53.4446 63.4955 53.4063V52.9698V52.8698H63.3955H62.7918H62.6918V52.9698V53.4551C62.2249 53.6039 61.8856 53.9909 61.8856 54.491C61.8856 54.8134 62.0143 55.0502 62.2094 55.2295C62.4005 55.405 62.6538 55.5243 62.9041 55.6224C63.1255 55.7121 63.2378 55.7932 63.2951 55.8604C63.3482 55.9228 63.3592 55.9791 63.3592 56.0403C63.3592 56.125 63.3237 56.1936 63.2593 56.2436C63.1928 56.2951 63.0905 56.3301 62.957 56.3301C62.6699 56.3301 62.4304 56.2146 62.1804 56.0481L62.074 55.9773L62.0308 56.0975L61.8136 56.7026L61.7898 56.7688L61.8441 56.8136C62.0683 56.9983 62.3481 57.0945 62.6246 57.1332V57.6132V57.7132H62.7246H63.3283H63.4283V57.6132V57.0883C63.9603 56.9335 64.2741 56.5168 64.2741 56.0031C64.2741 55.6541 64.143 55.3992 63.9538 55.2105C63.7679 55.025 63.5288 54.9064 63.3149 54.8192C63.0681 54.7173 62.938 54.6441 62.8693 54.5823C62.8367 54.5531 62.8207 54.5288 62.812 54.5076C62.8031 54.4862 62.7989 54.4615 62.7989 54.4273C62.7989 54.3728 62.8181 54.3197 62.8627 54.2794C62.9077 54.2387 62.9893 54.2013 63.1317 54.2013C63.3837 54.2013 63.5876 54.2948 63.8191 54.427Z" fill="#1ACDB8" stroke="#1ACDB8" stroke-width="0.2"/>
<path d="M44.947 27.0479C44.9463 27.0471 44.9457 27.0465 44.9451 27.0461C44.9422 27.0441 44.9376 27.0414 44.9361 27.0406L44.9329 27.039L44.929 27.0371L44.9274 27.0364L44.9212 27.0338C44.9019 27.0257 44.842 27.0011 44.7849 26.9776L44.7355 26.9574C44.5381 26.8721 44.4282 26.808 44.367 26.753C44.3345 26.7237 44.3185 26.6994 44.3097 26.6783C44.3008 26.6568 44.2966 26.6322 44.2966 26.598C44.2966 26.5434 44.3159 26.4903 44.3604 26.45C44.4054 26.4093 44.487 26.372 44.6294 26.372C44.8814 26.372 45.0853 26.4655 45.3169 26.5977L45.4184 26.6556L45.4599 26.5463L45.6858 25.9508L45.7142 25.8761L45.6476 25.832C45.448 25.6997 45.2271 25.6153 44.9932 25.577V25.1405V25.0405H44.8932H44.2895H44.1895V25.1405V25.6258C43.7226 25.7745 43.3833 26.1615 43.3833 26.6616C43.3833 26.984 43.512 27.2209 43.7072 27.4002C43.8982 27.5757 44.1515 27.6949 44.4019 27.7931C44.6233 27.8827 44.7355 27.9638 44.7928 28.0311C44.8459 28.0934 44.8569 28.1497 44.8569 28.211C44.8569 28.2956 44.8214 28.3643 44.757 28.4142C44.6906 28.4658 44.5883 28.5007 44.4547 28.5007C44.1676 28.5007 43.9281 28.3852 43.6781 28.2187L43.5718 28.1479L43.5286 28.2682L43.3113 28.8733L43.2875 28.9395L43.3418 28.9842C43.5661 29.169 43.8459 29.2652 44.1223 29.3039V29.7838V29.8838H44.2223H44.826H44.926V29.7838V29.2589C45.458 29.1042 45.7718 28.6875 45.7718 28.1737L44.947 27.0479ZM44.947 27.0479C45.1226 27.1287 45.3039 27.2339 45.4516 27.3813C45.6407 27.5699 45.7719 27.8248 45.7718 28.1737L44.947 27.0479Z" fill="#1ACDB8" stroke="#1ACDB8" stroke-width="0.2"/>
</g>
<defs>
<filter id="filter0_d_1057_305" x="0" y="0" width="90" height="90" filterUnits="userSpaceOnUse" color-interpolation-filters="sRGB">
<feFlood flood-opacity="0" result="BackgroundImageFix"/>
<feColorMatrix in="SourceAlpha" type="matrix" values="0 0 0 0 0 0 0 0 0 0 0 0 0 0 0 0 0 0 127 0" result="hardAlpha"/>
<feOffset/>
<feGaussianBlur stdDeviation="2.5"/>
<feComposite in2="hardAlpha" operator="out"/>
<feColorMatrix type="matrix" values="0 0 0 0 0 0 0 0 0 0 0 0 0 0 0 0 0 0 0.25 0"/>
<feBlend mode="normal" in2="BackgroundImageFix" result="effect1_dropShadow_1057_305"/>
<feBlend mode="normal" in="SourceGraphic" in2="effect1_dropShadow_1057_305" result="shape"/>
</filter>
<radialGradient id="paint0_radial_1057_305" cx="0" cy="0" r="1" gradientUnits="userSpaceOnUse" gradientTransform="translate(45 45) rotate(90) scale(47.5)">
<stop stop-color="white"/>
<stop offset="1" stop-color="#EDEDED"/>
</radialGradient>
<clipPath id="clip0_1057_305">
<rect width="48" height="48" fill="white" transform="translate(21 21)"/>
</clipPath>
</defs>
</svg>
