<svg width="96" height="72" viewBox="0 0 96 72" fill="none" xmlns="http://www.w3.org/2000/svg">
<g id="pessoas 1" clip-path="url(#clip0_1057_432)">
<path id="Vector" d="M74.4604 72.2369H20.7261C19.0304 72.2369 17.6556 70.862 17.6556 69.1663V60.0756C17.6556 55.745 20.2106 51.8057 24.1651 50.0402C35.6661 44.9047 35.0357 45.0784 35.9319 45.0784H39.5814C40.9947 45.0784 42.2254 46.0429 42.5631 47.4153C43.8502 52.6459 51.3358 52.6484 52.6235 47.4153C52.9613 46.0431 54.192 45.0784 55.6052 45.0784C59.5328 45.0784 59.7345 45.0005 60.5065 45.3451L71.0216 50.0402C74.9758 51.8057 77.5311 55.745 77.5311 60.0756V69.1663C77.5309 70.862 76.1561 72.2369 74.4604 72.2369ZM47.6683 -0.236877C37.3263 -0.236877 28.9127 8.17676 28.9127 18.5187C28.9127 28.8606 37.3263 37.2743 47.6683 37.2743C58.0102 37.2743 66.4238 28.8606 66.4238 18.5187C66.4238 8.17676 58.0102 -0.236877 47.6683 -0.236877ZM18.0812 19.8244C11.5696 19.8244 6.27194 25.1221 6.27194 31.6339C6.27194 38.1455 11.5696 43.4431 18.0812 43.4431C24.593 43.4431 29.8907 38.1455 29.8907 31.6339C29.8905 25.1221 24.5928 19.8244 18.0812 19.8244ZM77.1052 19.8244C70.5934 19.8244 65.2958 25.1221 65.2958 31.6339C65.2958 38.1455 70.5934 43.4431 77.1052 43.4431C83.6169 43.4431 88.9145 38.1455 88.9145 31.6339C88.9145 25.1221 83.6169 19.8244 77.1052 19.8244ZM90.7534 47.9539C84.3644 45.1007 84.5173 45.0715 83.6432 45.0715C79.0694 45.0715 76.0774 45.0394 74.0535 45.0295C72.0419 45.0195 71.3756 47.7175 73.1581 48.6498C74.6175 49.4132 75.5036 50.0644 76.556 51.2127C79.6271 54.5483 79.9132 58.0784 79.9127 61.0052C79.9125 62.0651 80.7713 62.923 81.8312 62.923H92.1159C93.8124 62.923 95.1864 61.547 95.1864 59.8524V54.7878C95.1864 51.8382 93.4458 49.1572 90.7534 47.9539ZM11.5433 45.0715C10.6732 45.0715 10.8443 45.0907 4.43308 47.9539C1.74061 49.1572 0 51.8382 0 54.7878V59.8523C0 61.5468 1.37406 62.9228 3.07053 62.9228H13.3545C14.415 62.9228 15.2744 62.0638 15.273 61.0035C15.2696 58.0664 15.5472 54.5613 18.6304 51.2125C19.6777 50.0697 20.5712 49.4128 21.9984 48.663C23.7772 47.7286 23.1199 45.0385 21.1107 45.0419C19.0747 45.0454 16.0831 45.0715 11.5433 45.0715Z" fill="#F5F5F5"/>
</g>
<defs>
<clipPath id="clip0_1057_432">
<rect width="95.1864" height="72" fill="white"/>
</clipPath>
</defs>
</svg>
